<svg xmlns="http://www.w3.org/2000/svg" width="77" height="60" viewBox="0 0 77 60">
  <metadata><?xpacket begin="﻿" id="W5M0MpCehiHzreSzNTczkc9d"?>
<x:xmpmeta xmlns:x="adobe:ns:meta/" x:xmptk="Adobe XMP Core 5.6-c138 79.159824, 2016/09/14-01:09:01        ">
   <rdf:RDF xmlns:rdf="http://www.w3.org/1999/02/22-rdf-syntax-ns#">
      <rdf:Description rdf:about=""/>
   </rdf:RDF>
</x:xmpmeta>
                                                                                                    
                                                                                                    
                                                                                                    
                                                                                                    
                                                                                                    
                                                                                                    
                                                                                                    
                                                                                                    
                                                                                                    
                                                                                                    
                                                                                                    
                                                                                                    
                                                                                                    
                                                                                                    
                                                                                                    
                                                                                                    
                                                                                                    
                                                                                                    
                                                                                                    
                                                                                                    
                           
<?xpacket end="w"?></metadata>
<defs>
    <style>
      .cls-1 {
        fill: #fff;
        fill-rule: evenodd;
      }
    </style>
  </defs>
  <path id="Forma_1" data-name="Forma 1" class="cls-1" d="M76.358,40.881l-12.21-9.158V28.045a1.6,1.6,0,0,0-.643-1.283L39.473,8.737a1.622,1.622,0,0,0-1.945,0L13.494,26.763a1.6,1.6,0,0,0-.643,1.283v3.678L0.642,40.881A1.6,1.6,0,0,0,0,42.164v16.23A1.611,1.611,0,0,0,1.614,60H75.386A1.611,1.611,0,0,0,77,58.394V42.164A1.6,1.6,0,0,0,76.358,40.881ZM40.247,56.787H36.753v-8.1h3.493v8.1Zm3.23,0v-9.7a1.611,1.611,0,0,0-1.615-1.607H35.138a1.611,1.611,0,0,0-1.615,1.607v9.7H16.082V28.846L38.5,12.032,60.918,28.846V56.787H43.477ZM3.229,42.964l9.622-7.217v21.04H3.229V42.964ZM73.771,56.787H64.148V35.747l9.622,7.217V56.787ZM2.587,30.552L38.5,3.617,74.413,30.553a1.61,1.61,0,1,0,1.945-2.565L39.473,0.322a1.622,1.622,0,0,0-1.945,0L0.642,27.987a1.6,1.6,0,0,0-.317,2.25A1.621,1.621,0,0,0,2.587,30.552Z"/>
</svg>
