<?xml version="1.0" encoding="utf-8"?>
<!-- Generator: Adobe Illustrator 21.1.0, SVG Export Plug-In . SVG Version: 6.00 Build 0)  -->
<svg version="1.1" id="Layer_1" xmlns="http://www.w3.org/2000/svg" xmlns:xlink="http://www.w3.org/1999/xlink" x="0px" y="0px"
	 viewBox="0 0 77 60" style="enable-background:new 0 0 77 60;" xml:space="preserve">
<path id="Forma_1" d="M76.4,40.9l-12.2-9.2V28c0-0.5-0.2-1-0.6-1.3l-24-18c-0.6-0.4-1.4-0.4-1.9,0l-24,18c-0.4,0.3-0.6,0.8-0.6,1.3
	v3.7L0.6,40.9C0.2,41.2,0,41.7,0,42.2v16.2C0,59.3,0.7,60,1.6,60h73.8c0.9,0,1.6-0.7,1.6-1.6V42.2C77,41.7,76.8,41.2,76.4,40.9z
	 M40.2,56.8h-3.5v-8.1h3.5L40.2,56.8L40.2,56.8z M43.5,56.8v-9.7c0-0.9-0.7-1.6-1.6-1.6c0,0,0,0,0,0h-6.7c-0.9,0-1.6,0.7-1.6,1.6
	c0,0,0,0,0,0v9.7H16.1V28.8L38.5,12l22.4,16.8v27.9H43.5z M3.2,43l9.6-7.2v21H3.2V43z M73.8,56.8h-9.6v-21l9.6,7.2L73.8,56.8
	L73.8,56.8z M2.6,30.6L38.5,3.6l35.9,26.9c0.7,0.6,1.7,0.4,2.3-0.3c0.6-0.7,0.4-1.7-0.3-2.3c0,0,0,0-0.1,0L39.5,0.3
	c-0.6-0.4-1.4-0.4-1.9,0L0.6,28c-0.7,0.5-0.9,1.5-0.3,2.2c0,0,0,0,0,0C0.9,30.9,1.9,31.1,2.6,30.6z"/>
</svg>
