<?xml version="1.0" encoding="UTF-8" standalone="no"?>
<svg
   xmlns:dc="http://purl.org/dc/elements/1.1/"
   xmlns:cc="http://creativecommons.org/ns#"
   xmlns:rdf="http://www.w3.org/1999/02/22-rdf-syntax-ns#"
   xmlns:svg="http://www.w3.org/2000/svg"
   xmlns="http://www.w3.org/2000/svg"
   xmlns:sodipodi="http://sodipodi.sourceforge.net/DTD/sodipodi-0.dtd"
   xmlns:inkscape="http://www.inkscape.org/namespaces/inkscape"
   viewBox="0 0 421 85"
   height="85"
   width="421"
   xml:space="preserve"
   version="1.1"
   id="svg2"
   inkscape:version="0.48.2 r9819"
   sodipodi:docname="Logo_Tages-Anzeiger_sw Kopie.svg"><sodipodi:namedview
     pagecolor="#ffffff"
     bordercolor="#666666"
     borderopacity="1"
     objecttolerance="10"
     gridtolerance="10"
     guidetolerance="10"
     inkscape:pageopacity="0"
     inkscape:pageshadow="2"
     inkscape:window-width="1211"
     inkscape:window-height="802"
     id="namedview28"
     showgrid="true"
     fit-margin-top="0"
     inkscape:snap-object-midpoints="true"
     inkscape:zoom="1"
     inkscape:cx="513.78125"
     inkscape:cy="100.42493"
     inkscape:window-x="0"
     inkscape:window-y="0"
     inkscape:window-maximized="0"
     inkscape:current-layer="svg2"><inkscape:grid
       type="xygrid"
       id="grid3005"
       empspacing="5"
       visible="true"
       enabled="true"
       snapvisiblegridlinesonly="true" /></sodipodi:namedview><metadata
     id="metadata8"><rdf:RDF><cc:Work
         rdf:about=""><dc:format>image/svg+xml</dc:format><dc:type
           rdf:resource="http://purl.org/dc/dcmitype/StillImage" /><dc:title></dc:title></cc:Work></rdf:RDF></metadata><defs
     id="defs6"><clipPath
       id="clipPath18"
       clipPathUnits="userSpaceOnUse"><path
         id="path20"
         d="m 0,0 8220,0 0,1606.76 -8220,0 L 0,0 z"
         inkscape:connector-curvature="0" /></clipPath></defs><g
     transform="matrix(0.50875911,0,0,-0.50875909,1.7761053,83)"
     id="g10"><g
       transform="scale(0.1,0.1)"
       id="g12"><g
         id="g14"><g
           clip-path="url(#clipPath18)"
           id="g16"><path
             id="path22"
             style="fill:#231f20;fill-opacity:1;fill-rule:evenodd;stroke:none"
             d="m 6535.49,1459.56 c -29.58,-47.23 -76.95,-88.1 -118.7,-123.45 l -112.99,122.51 120.11,124.4 c 40.36,-37.98 75.97,-80.72 111.58,-123.46"
             inkscape:connector-curvature="0" /><path
             id="path24"
             style="fill:#231f20;fill-opacity:1;fill-rule:evenodd;stroke:none"
             d="m 3834.73,1424.59 -43.99,-76.39 61.5,-13.79 48.97,74.02 94.96,-34.32 -108.58,-164.15 c -138.86,56.35 -443.1,51.42 -569.35,-0.6 l -104.27,166.96 91,33.87 56.06,-76.22 61.86,14.37 -41.93,77.5 106.04,14.11 55.53,-78.67 c 40.46,1.27 80.88,1.49 121.26,0.48 l 58.56,77.88 112.38,-15.05 z m -445.98,-128.16 18.06,-24.4 c 138.35,25.7 265.03,29.53 403.64,0.8 l 15.53,24.12 c -143.5,35.28 -291.09,30.07 -437.23,-0.52 l 0,0"
             inkscape:connector-curvature="0" /><path
             id="path26"
             style="fill:#231f20;fill-opacity:1;fill-rule:evenodd;stroke:none"
             d="m 5055.05,1124.82 c 59.35,54.61 110.75,114.45 155.86,178.55 30.87,-52.23 63.44,-119.34 106.19,-164.45 l 60.98,49.91 14.26,-16.62 c -33.41,-32.85 -71.12,-51.79 -71.12,-97.37 l 0,-590.219 c 1.78,-17.031 10.56,-34.039 24.83,-43.551 l 54.98,57.801 18.62,-18.23 c -59.77,-73.993 -125.04,-149 -174.89,-228.512 C 5194.5,298.648 5141.14,364.012 5141.14,413 l 0,657.56 c -7.1,14.25 -23.03,37.65 -37.25,51.89 -19,-16.62 -44.12,-31.59 -48.84,-55.33 l 0,-607.819 c 0,-21.711 30.14,-38.969 48.02,-49.121 -48.02,-52.2 -89.4,-103.45 -127.41,-158.051 -41.52,53.453 -88.62,111.402 -144.79,153.332 13.07,11.07 43.91,32.539 43.91,52.738 l 0,618.241 c 0.01,24.19 -19.79,51.94 -34.03,59.07 l -46.88,-52.46 -19.8,17.84 c 55.68,59.88 114.5,131.12 162.05,202.48 78.23,-59.44 103.42,-118.34 118.93,-178.55"
             inkscape:connector-curvature="0" /><path
             id="path28"
             style="fill:#231f20;fill-opacity:1;fill-rule:evenodd;stroke:none"
             d="M 5727.99,1001.85 C 5712.45,933.266 5624.45,830.422 5585.54,788.168 5709.68,720.699 5776.04,557.289 5722.02,425.512 5675.97,313.191 5551.18,150.961 5466.84,61.6992 5447.82,99.6797 5409.85,149.551 5360,147.16 c -59.2,-5.351 -81.65,-72.9803 -93.66,-79.4686 l -20.5,17.1992 c 18.98,75.9494 74.53,153.2504 150.54,186.5004 54.58,21.379 120.31,1.621 158.27,-38.75 134.21,164.14 28.25,312.468 -113.16,432.113 68.05,88.535 152.93,163.105 148.3,253.891 -4.31,84.215 -40.41,140.355 -101.59,197.165 l -40.53,-43.27 -19.71,17.84 c 55.8,66.46 110.1,139.38 155.2,212.98 80.74,-85.47 173.86,-173.45 144.83,-301.51"
             inkscape:connector-curvature="0" /><path
             id="path30"
             style="fill:#231f20;fill-opacity:1;fill-rule:evenodd;stroke:none"
             d="m 6535.91,1147.73 48.65,54.26 20.27,-18.52 c -29.29,-33.02 -94.08,-91.39 -94.08,-122.42 l 0,-576.769 c 0,-17.832 16.04,-45.601 30.29,-52.73 l 53.78,55.449 20.61,-17.02 c -64.1,-71.218 -131.34,-141.878 -183.56,-217.851 -45.11,37.98 -102.4,104.391 -102.4,152.672 l 0,670.059 c 0,32.35 -23.48,44.03 -32.99,51.16 l -23.37,-24.84 -19.57,17.31 c 52.58,58.44 108.47,118.21 156.12,184.39 38,-52.23 81.14,-110.04 126.25,-155.15"
             inkscape:connector-curvature="0" /><path
             id="path32"
             style="fill:#231f20;fill-opacity:1;fill-rule:evenodd;stroke:none"
             d="m 7921.17,1120.05 c 35.36,59.02 80.74,129.71 133.11,183.32 9.16,-89.48 81.89,-211.94 148.6,-89.26 l 17.59,-6.19 c -27.85,-79.34 -79.07,-176.25 -141.41,-199.75 -38.59,-14.557 -84.7,17.07 -125.02,95.54 -11.87,-4.75 -32.87,-33.15 -32.87,-53.5 l 0.17,-554.519 76.3,-73.64 71.36,80.129 19.47,-19.039 c -51.37,-56.43 -140.46,-162.469 -188.51,-229.61 -52.23,52.231 -109.69,98.457 -169.05,141.188 l -44.73,-47.949 -20.06,17.378 c 19.51,23.723 74,73.391 74,99.024 l 0,603.888 c -1.2,39.74 -10.9,57.39 -20.8,66.09 l -26.88,-28.71 -19.43,17.58 c 49.47,54.58 108.65,122 149,181.35 59.66,-44.1 100.44,-107.26 99.16,-183.32"
             inkscape:connector-curvature="0" /><path
             id="path34"
             style="fill:#231f20;fill-opacity:1;fill-rule:evenodd;stroke:none"
             d="m 851.82,1331.36 c -47.48,-49.85 -132.226,-72.03 -198.683,-66.47 l 0.144,-869.769 c 109.668,-0.383 150.957,140.18 160.551,207.41 L 835.195,590.66 C 831.227,449.781 735.328,313.27 607.273,265.398 462.309,211.199 301.016,255.922 191.801,355.609 23.2422,531.309 -14.7344,806.688 61.2305,1036.98 125.332,1196.05 282.031,1314.75 455.336,1314.75 l 2.375,-21.37 C 310.512,1226.91 248.785,1070.21 229.797,920.652 c -16.621,-149.57 16.617,-303.89 111.586,-417.843 11.871,2.39 28.418,16.632 30.781,28.5 l 0.082,645.741 c 54.594,40.36 115.527,76.79 172.516,119.52 -118.617,69.44 -308.653,127.55 -436.051,44.31 -71.3399,-46.61 -93.0274,-146.76 -30.8555,-208.93 l -11.875,-16.63 c -68.84378,42.74 -71.71878,133.3 -61.7305,204.17 16.1172,114.4 127.875,217.37 237.414,244.55 206.231,51.15 360.875,-85.47 548.43,-113.97 59.07,-9.83 83.054,52.11 66.468,99.72 -5.882,16.89 -26.46,28.93 -37.949,36.05 l 11.832,20.92 c 108.867,-40.11 96.981,-210.56 21.375,-275.4 z m -230.3,-62.93 c -20.485,5.41 -41.176,12.68 -59.563,20.19 l 0,-612.507 c 0,-128.222 -131.164,-159.984 -189.711,-206.523 64.102,-56.988 159.063,-81.531 249.274,-76.789 l 0,875.629"
             inkscape:connector-curvature="0" /><path
             id="path36"
             style="fill:#231f20;fill-opacity:1;fill-rule:evenodd;stroke:none"
             d="m 4524.61,1442.95 c 43.63,43.82 117.85,89.62 194.39,-2.37 l -16.33,-16.63 c -50.32,35.94 -85.17,18.93 -106.05,-19.25 -18.99,-40.36 -15.8,-102.27 -7.92,-146.93 l 133.18,-754.598 c 4.42,-25.082 17.08,-48.301 39.33,-64.992 18.74,11.879 31.13,28.511 47.5,47.218 l 19.78,-18.199 C 4785.88,419.34 4692.9,306.379 4650.43,253.531 4607.7,296.25 4560.21,339.012 4548.34,393.59 l -48.09,266.144 -228.46,-0.039 -25.28,-120.316 c 68.54,-6.16 120.5,-40.719 168.08,-90.879 l 38.27,49.301 19.51,-13.981 -156.7,-220.808 c -15.45,56.867 -43.64,120.058 -119.25,127.328 -62.16,5.969 -101.63,-33.57 -96.79,-96.442 5.28,-63.359 72.66,-95.949 128.48,-98.867 55.35,-2.902 102.62,26.391 133.73,54.02 L 4380.58,234 c -37.98,-45.121 -91.98,-68.801 -154.08,-66.719 -92.74,3.117 -178.23,84.848 -178.52,189.348 -0.27,94.242 68.5,162.512 158.01,180.691 l 36.09,162.532 135.12,652.268 c -19,54.6 -56.77,102.7 -113.75,126.45 -26.12,11.87 -61.73,11.86 -87.84,0 -56.19,-30.66 -57.22,-100.34 -13.46,-141.65 36.61,-34.58 97.6,-28.23 141.66,-15.05 l 7.12,-18.99 c -47.48,-26.11 -116.33,-23.74 -161.44,4.74 -35.61,23.74 -52.23,64.11 -49.86,106.84 4.75,56.97 32.44,106.83 82.3,142.45 64.11,47.48 169.36,37.98 233.46,-2.39 45.11,-26.1 80.72,-68.84 109.22,-111.57 z m -128.51,-191.66 -89.99,-428.267 165.39,0 -75.4,428.267 0,0"
             inkscape:connector-curvature="0" /><path
             id="path38"
             style="fill:#231f20;fill-opacity:1;fill-rule:evenodd;stroke:none"
             d="m 1371.76,1156.68 c 12.28,7.43 28.34,18.35 40.11,26.77 l 16.87,-19.65 c -33.25,-33.23 -97.35,-52.23 -92.6,-109.2 l -0.27,-596.209 c 4.76,-11.871 16.88,-23.422 28.75,-28.2 16.63,11.868 27.86,30.84 44.32,48.118 l 17.42,-12.5 c -53.33,-66.637 -110.48,-142.469 -157.97,-213.68 -56.36,50.223 -91.67,106.68 -109.48,154.961 -56.98,-42.711 -102.92,-97.969 -145.65,-154.949 -54.49,44.148 -100.045,86.898 -140.076,132.961 l -45.102,-47.481 -19.152,17.418 c 23.101,28.172 78.113,77.852 78.304,111.121 l 0,612.27 c 91.719,58.75 211.716,127.05 307.096,224.93 56.98,-59.35 115.69,-101.57 177.43,-146.68 z m -302.6,-12.5 0,-679.739 46.18,-48.48 c 11.09,10.141 29.32,26.738 43.57,41 l -0.64,613.379 c -24.16,24.77 -65.87,56.37 -89.11,73.84 l 0,0"
             inkscape:connector-curvature="0" /><path
             id="path40"
             style="fill:#231f20;fill-opacity:1;fill-rule:evenodd;stroke:none"
             d="m 1979.53,1141.93 53.81,41.15 16.83,-21.15 c -39.24,-31.04 -105.66,-64 -106.25,-119.72 l 0.58,-630.401 C 1989.6,354.852 2024.64,282.5 2003.28,204.16 1929.67,30.8281 1720.75,78.3086 1585.43,0 c -0.4,154.82 -160.93,159.91 -202.36,66.0508 l -25.56,7.539 c 45.69,212.3202 362.12,226.8592 382.24,7.1211 102,-6.4218 133.92,124.5591 73.6,197.0391 -24.98,30.02 -49.6,93.18 -49.6,128.852 -45.12,-45.122 -87.23,-101.793 -129.73,-154.473 l -148.31,132.449 -43.28,-46.387 -20.18,17.438 c 19.63,23.672 75.18,75.601 75.49,96.543 l 0,603.188 c 106.99,67.44 223.96,152.56 315.61,248 47.48,-56.97 104.45,-118.7 166.18,-161.43 z m -301.74,-4.37 0,-674.29 c 15.19,-12.641 27.92,-23.668 47.71,-40.391 11.87,16.652 27.51,33.133 37.99,47.16 l 0,598.291 c -21.37,26.12 -57.21,52.62 -85.7,69.23 l 0,0"
             inkscape:connector-curvature="0" /><path
             id="path42"
             style="fill:#231f20;fill-opacity:1;fill-rule:evenodd;stroke:none"
             d="m 2364.14,1303.35 c 41.64,-110.21 95.64,-215.31 147.33,-320.991 l -232,-238.175 0,-250.383 92.58,-77.25 c 28.17,27.07 50.65,56.508 77.25,87.508 l 21.68,-15.028 c -66,-79.941 -136.01,-153.801 -200.12,-236.902 -54.6,49.851 -112.52,95.082 -176.62,140.172 l -45.67,-49.192 -20.82,18.02 c 20.11,23.25 70.96,71.91 70.96,96.121 l 0,596.24 c 40.36,36.23 204.84,187.31 265.43,249.86 z m -84.67,-232.78 0,-280.015 94.63,93.679 c -24.75,63.981 -60.68,128.146 -94.63,186.336 l 0,0"
             inkscape:connector-curvature="0" /><path
             id="path44"
             style="fill:#231f20;fill-opacity:1;fill-rule:evenodd;stroke:none"
             d="m 3083.76,1293.98 23.15,-16.02 -223.74,-351.991 c 30.86,-23.735 85.36,-43.832 123.5,-55.551 l 0,-426.707 C 2903.36,392.051 2821.91,341.762 2744,252.129 c -40.36,49.859 -97.34,85.48 -163.81,83.101 -56.98,4.782 -90.85,-42.769 -124.09,-83.101 l -23.11,14.269 c 73.6,116.313 147.79,236.551 223.76,352.891 -35.23,30.727 -61.56,51.484 -90.8,72.055 l 1.62,375.576 c 78.51,42.68 189.23,125.86 254.72,236.45 72.47,-98.01 186.2,-133.62 261.47,-9.39 z M 2744,1113.95 l 0,-308.63 c 0,-11.382 7.31,-17.769 16.32,-22.382 l 176.76,279.282 c -86.5,-25.83 -129.93,-8.1 -193.08,51.73 l 0,0 z M 2782.53,767.895 2599.69,480 c 82.63,17.191 155.94,10.93 224.69,-66.398 l 0,314.929 c 0,14.235 -26.51,31.926 -41.85,39.364 l 0,0"
             inkscape:connector-curvature="0" /><path
             id="path46"
             style="fill:#231f20;fill-opacity:1;fill-rule:evenodd;stroke:none"
             d="m 3610.13,1164.82 c -129.49,2.34 -268.48,-26.31 -381.42,-95.86 0,0 -24.21,-536.73 381.42,-782.73 405.66,246 381.44,782.73 381.44,782.73 -72.65,44.74 -205.86,99.04 -381.44,95.86 z m 0.33,38.63 c 194.54,3.52 342.13,-56.65 422.64,-106.21 0,0 26.83,-594.689 -422.64,-867.271 -449.47,272.582 -422.64,867.271 -422.64,867.271 80.49,49.56 228.1,109.73 422.64,106.21 l 0,0"
             inkscape:connector-curvature="0" /><path
             id="path48"
             style="fill:#231f20;fill-opacity:1;fill-rule:evenodd;stroke:none"
             d="m 3608.91,1116.32 0,0 c -153.29,2.8 -269.56,-44.61 -332.98,-83.66 l 579.41,-403.582 c 35.2,84.121 56.48,153.953 69.3,222.477 10.95,58.578 15.82,116.261 17.24,181.105 -63.42,39.05 -179.7,86.46 -332.97,83.66 z m 0.27,10.22 c 157.99,2.88 277.89,-45.97 343.27,-86.24 0,0 21.8,-483.062 -343.27,-704.46 -365.1,221.398 -343.3,704.46 -343.3,704.46 65.39,40.27 185.28,89.12 343.3,86.24 l 0,0"
             inkscape:connector-curvature="0" /><path
             id="path50"
             style="fill:#231f20;fill-opacity:1;fill-rule:evenodd;stroke:none"
             d="m 6108.96,1303.35 c 41.65,-110.21 95.64,-215.31 147.34,-320.991 l -231.99,-238.175 -0.01,-250.383 92.58,-77.25 c 28.17,27.07 50.65,56.508 77.24,87.508 l 21.69,-15.028 C 6149.8,409.09 6079.79,335.23 6015.69,252.129 c -54.61,49.851 -112.52,95.082 -176.62,140.172 l -45.67,-49.192 -20.83,18.02 c 20.12,23.25 71.48,72.41 71.48,96.633 l 0,595.728 c 40.36,36.23 204.33,187.31 264.91,249.86 z m -84.65,-232.78 -0.01,-280.015 94.63,93.679 c -24.75,63.981 -60.68,128.146 -94.62,186.336 l 0,0"
             inkscape:connector-curvature="0" /><path
             id="path52"
             style="fill:#231f20;fill-opacity:1;fill-rule:evenodd;stroke:none"
             d="m 7524.19,1303.35 c 41.64,-110.21 95.63,-215.31 147.33,-320.991 l -232,-238.175 0,-250.383 92.57,-77.25 c 28.18,27.07 50.65,56.508 77.26,87.508 l 21.68,-15.028 c -66,-79.941 -136.02,-153.801 -200.12,-236.902 -54.6,49.851 -112.52,95.082 -176.61,140.172 l -45.68,-49.192 -20.83,18.02 c 20.11,23.25 69.5,71.922 70.09,96.133 l -0.01,596.428 c 40.36,36.24 205.73,187.11 266.32,249.66 z m -84.67,-232.78 0,-280.015 94.63,93.679 c -24.76,63.981 -60.68,128.146 -94.63,186.336 l 0,0"
             inkscape:connector-curvature="0" /><path
             id="path54"
             style="fill:#231f20;fill-opacity:1;fill-rule:evenodd;stroke:none"
             d="m 7147.59,1141.93 53.8,41.15 16.83,-21.15 c -39.25,-31.04 -105.66,-64 -106.25,-119.72 l 0.58,-630.401 C 7157.65,354.852 7192.69,282.5 7171.33,204.16 7097.72,30.8281 6888.8,78.3086 6753.48,0 c -0.39,154.82 -160.93,159.91 -202.37,66.0508 l -25.55,7.539 c 45.7,212.3202 362.12,226.8592 382.23,7.1211 102.01,-6.4218 133.94,124.5591 73.61,197.0391 -24.98,30.02 -49.6,93.18 -49.6,128.852 -45.12,-45.122 -87.23,-101.793 -129.73,-154.473 l -148.31,132.449 -43.28,-46.387 -20.19,17.438 c 19.64,23.672 75.19,75.601 75.51,96.543 l 0,603.188 c 106.98,67.44 223.96,152.56 315.6,248 47.48,-56.97 104.45,-118.7 166.19,-161.43 z m -301.75,-4.37 0,-674.29 c 15.19,-12.641 27.92,-23.668 47.7,-40.391 11.88,16.652 27.52,33.133 37.99,47.16 l 0,598.291 c -21.36,26.12 -57.19,52.62 -85.69,69.23 l 0,0"
             inkscape:connector-curvature="0" /></g></g></g></g></svg>