<svg xmlns="http://www.w3.org/2000/svg" width="65" height="60" viewBox="0 0 65 60">
  <metadata><?xpacket begin="﻿" id="W5M0MpCehiHzreSzNTczkc9d"?>
<x:xmpmeta xmlns:x="adobe:ns:meta/" x:xmptk="Adobe XMP Core 5.6-c138 79.159824, 2016/09/14-01:09:01        ">
   <rdf:RDF xmlns:rdf="http://www.w3.org/1999/02/22-rdf-syntax-ns#">
      <rdf:Description rdf:about=""/>
   </rdf:RDF>
</x:xmpmeta>
                                                                                                    
                                                                                                    
                                                                                                    
                                                                                                    
                                                                                                    
                                                                                                    
                                                                                                    
                                                                                                    
                                                                                                    
                                                                                                    
                                                                                                    
                                                                                                    
                                                                                                    
                                                                                                    
                                                                                                    
                                                                                                    
                                                                                                    
                                                                                                    
                                                                                                    
                                                                                                    
                           
<?xpacket end="w"?></metadata>
<defs>
    <style>
      .cls-1 {
        fill: #fff;
        fill-rule: evenodd;
      }
    </style>
  </defs>
  <path class="cls-1" d="M55.522,13.625a1.364,1.364,0,1,0,1.353,1.365A1.36,1.36,0,0,0,55.522,13.625ZM33.855,19.082a1.364,1.364,0,1,0,1.355,1.364A1.359,1.359,0,0,0,33.855,19.082ZM58.23,21.809a1.364,1.364,0,1,0,1.355,1.365A1.36,1.36,0,0,0,58.23,21.809ZM52.813,2.714H51.46V1.365a1.355,1.355,0,1,0-2.71,0v1.35H47.4a1.364,1.364,0,0,0,0,2.727H48.75V6.806a1.355,1.355,0,1,0,2.71,0V5.441h1.353A1.364,1.364,0,0,0,52.813,2.714ZM47.4,16.353H46.042V15a1.354,1.354,0,1,0-2.708,0v1.35H41.98a1.364,1.364,0,0,0,0,2.728h1.355v1.364a1.354,1.354,0,1,0,2.708,0V19.082H47.4A1.364,1.364,0,0,0,47.4,16.353ZM65,32.721c0-4.52-10.305-8.184-23.02-8.184S18.958,28.2,18.958,32.721c0,2.471,3.082,4.687,7.954,6.188L26.236,56.87c0,1.728,7.276,3.13,16.25,3.13s16.252-1.4,16.252-3.13L58.049,38.58C62.338,37.093,65,35.018,65,32.721ZM52.061,56.643a67.357,67.357,0,0,1-9.575.628,67.343,67.343,0,0,1-9.573-.628,20.133,20.133,0,0,1-3.924-.894L29.6,39.621A56.815,56.815,0,0,0,41.98,40.9a55.37,55.37,0,0,0,13.39-1.527l0.615,16.371A20.171,20.171,0,0,1,52.061,56.643Zm9.4-22.832a13.29,13.29,0,0,1-4.1,2.124,36.989,36.989,0,0,1-6.816,1.628,57.9,57.9,0,0,1-8.562.612,57.862,57.862,0,0,1-8.561-.612A36.991,36.991,0,0,1,26.6,35.936a13.292,13.292,0,0,1-4.1-2.124,2.032,2.032,0,0,1-.835-1.091A2.035,2.035,0,0,1,22.5,31.63a13.285,13.285,0,0,1,4.1-2.124,36.992,36.992,0,0,1,6.816-1.628,60.054,60.054,0,0,1,17.123,0,36.984,36.984,0,0,1,6.816,1.628,13.288,13.288,0,0,1,4.1,2.124,2.036,2.036,0,0,1,.835,1.091A2.032,2.032,0,0,1,61.457,33.812ZM41.98,28.629c-8.226,0-14.9,1.832-14.9,4.092s6.671,4.092,14.9,4.092,14.9-1.832,14.9-4.092S50.206,28.629,41.98,28.629Zm8.585,4.653a42.682,42.682,0,0,1-8.585.8,42.723,42.723,0,0,1-8.587-.8,19.336,19.336,0,0,1-2.093-.562,19.372,19.372,0,0,1,2.093-.562,42.708,42.708,0,0,1,8.587-.8,42.689,42.689,0,0,1,8.585.8,19.392,19.392,0,0,1,2.095.562A19.392,19.392,0,0,1,50.565,33.282ZM37.528,3.81L0,25.634l4.062,7.087L41.591,10.9ZM5.054,28.995L3.7,26.632,27.156,12.993l1.353,2.363ZM29.5,11.628l7.036-4.092L37.892,9.9l-7.036,4.092Z"/>
</svg>
