<?xml version="1.0" encoding="utf-8"?>
<!-- Generator: Adobe Illustrator 21.1.0, SVG Export Plug-In . SVG Version: 6.00 Build 0)  -->
<svg version="1.1" id="Layer_1" xmlns="http://www.w3.org/2000/svg" xmlns:xlink="http://www.w3.org/1999/xlink" x="0px" y="0px"
	 viewBox="0 0 65 60" style="enable-background:new 0 0 65 60;" xml:space="preserve">
<path d="M55.5,13.6c-0.8,0-1.4,0.6-1.4,1.4s0.6,1.4,1.4,1.4s1.4-0.6,1.4-1.4c0,0,0,0,0,0C56.9,14.2,56.3,13.6,55.5,13.6z M33.9,19.1
	c-0.8,0-1.4,0.6-1.4,1.4c0,0.8,0.6,1.4,1.4,1.4c0.8,0,1.4-0.6,1.4-1.4c0,0,0,0,0,0C35.2,19.7,34.6,19.1,33.9,19.1
	C33.9,19.1,33.9,19.1,33.9,19.1z M58.2,21.8c-0.8,0-1.4,0.6-1.4,1.4c0,0.8,0.6,1.4,1.4,1.4c0.8,0,1.4-0.6,1.4-1.4c0,0,0,0,0,0
	C59.6,22.4,59,21.8,58.2,21.8C58.2,21.8,58.2,21.8,58.2,21.8z M52.8,2.7h-1.4V1.4c0-0.7-0.6-1.4-1.4-1.4s-1.4,0.6-1.4,1.4
	c0,0,0,0,0,0v1.4h-1.3c-0.8,0-1.3,0.6-1.3,1.4c0,0.7,0.6,1.3,1.3,1.3h1.3v1.4c0,0.7,0.6,1.4,1.4,1.4s1.4-0.6,1.4-1.4c0,0,0,0,0,0
	V5.4h1.4c0.8,0,1.3-0.6,1.3-1.4C54.1,3.3,53.5,2.7,52.8,2.7z M47.4,16.4H46V15c0-0.7-0.6-1.4-1.4-1.4s-1.4,0.6-1.4,1.4v1.4H42
	c-0.8,0-1.4,0.6-1.4,1.4s0.6,1.4,1.4,1.4h1.4v1.4c0,0.7,0.6,1.4,1.4,1.4s1.4-0.6,1.4-1.4l0,0v-1.4h1.4c0.8,0,1.4-0.6,1.4-1.4
	S48.2,16.4,47.4,16.4z M65,32.7c0-4.5-10.3-8.2-23-8.2s-23,3.7-23,8.2c0,2.5,3.1,4.7,8,6.2l-0.7,18c0,1.7,7.3,3.1,16.3,3.1
	s16.3-1.4,16.3-3.1L58,38.6C62.3,37.1,65,35,65,32.7z M52.1,56.6c-3.2,0.4-6.4,0.6-9.6,0.6c-3.2,0-6.4-0.2-9.6-0.6
	c-1.3-0.2-2.6-0.5-3.9-0.9l0.6-16.1c4.1,0.9,8.2,1.3,12.4,1.3c4.5,0,9-0.5,13.4-1.5L56,55.7C54.7,56.2,53.4,56.5,52.1,56.6z
	 M61.5,33.8c-1.2,0.9-2.6,1.7-4.1,2.1c-2.2,0.8-4.5,1.3-6.8,1.6c-2.8,0.4-5.7,0.6-8.6,0.6c-2.9,0-5.7-0.2-8.6-0.6
	c-2.3-0.3-4.6-0.9-6.8-1.6c-1.5-0.5-2.9-1.2-4.1-2.1c-0.4-0.3-0.7-0.6-0.8-1.1c0.1-0.4,0.4-0.8,0.8-1.1c1.2-0.9,2.6-1.7,4.1-2.1
	c2.2-0.8,4.5-1.3,6.8-1.6c5.7-0.8,11.4-0.8,17.1,0c2.3,0.3,4.6,0.9,6.8,1.6c1.5,0.5,2.9,1.2,4.1,2.1c0.4,0.3,0.7,0.6,0.8,1.1
	C62.1,33.2,61.9,33.6,61.5,33.8L61.5,33.8z M42,28.6c-8.2,0-14.9,1.8-14.9,4.1s6.7,4.1,14.9,4.1s14.9-1.8,14.9-4.1
	S50.2,28.6,42,28.6z M50.6,33.3c-2.8,0.6-5.7,0.8-8.6,0.8c-2.9,0-5.8-0.2-8.6-0.8c-0.7-0.1-1.4-0.3-2.1-0.6c0.7-0.2,1.4-0.4,2.1-0.6
	c2.8-0.6,5.7-0.8,8.6-0.8c2.9,0,5.8,0.2,8.6,0.8c0.7,0.1,1.4,0.3,2.1,0.6C52,32.9,51.3,33.1,50.6,33.3z M37.5,3.8L0,25.6l4.1,7.1
	l37.5-21.8L37.5,3.8z M5.1,29l-1.4-2.4L27.2,13l1.4,2.4L5.1,29z M29.5,11.6l7-4.1l1.4,2.4l-7,4.1L29.5,11.6z"/>
</svg>
