<svg xmlns="http://www.w3.org/2000/svg" width="59" height="57" viewBox="0 0 59 57">
  <metadata><?xpacket begin="﻿" id="W5M0MpCehiHzreSzNTczkc9d"?>
<x:xmpmeta xmlns:x="adobe:ns:meta/" x:xmptk="Adobe XMP Core 5.6-c138 79.159824, 2016/09/14-01:09:01        ">
   <rdf:RDF xmlns:rdf="http://www.w3.org/1999/02/22-rdf-syntax-ns#">
      <rdf:Description rdf:about=""/>
   </rdf:RDF>
</x:xmpmeta>
                                                                                                    
                                                                                                    
                                                                                                    
                                                                                                    
                                                                                                    
                                                                                                    
                                                                                                    
                                                                                                    
                                                                                                    
                                                                                                    
                                                                                                    
                                                                                                    
                                                                                                    
                                                                                                    
                                                                                                    
                                                                                                    
                                                                                                    
                                                                                                    
                                                                                                    
                                                                                                    
                           
<?xpacket end="w"?></metadata>
<defs>
    <style>
      .cls-1 {
        fill: #fff;
        fill-rule: evenodd;
      }
    </style>
  </defs>
  <path id="Forma_1" data-name="Forma 1" class="cls-1" d="M59,23.94a7.875,7.875,0,0,0-7-7.77V0.919a0.921,0.921,0,0,0-.726-0.9,0.937,0.937,0,0,0-1.047.5,22.3,22.3,0,0,1-5.942,6.807c-3.915,3.1-10.887,6.8-21.864,6.8H10.481a10.338,10.338,0,1,0,0,20.673h1.454c0,1.776,0,5.635,0,7.157,0.019,5.962,2.907,10.967,8.584,14.878a0.942,0.942,0,0,0,1.163-.076l6.139-5.548a0.911,0.911,0,0,0-.1-1.431c-3.851-2.653-5.729-5.873-5.742-9.846,0-1.078,0-3.724,0-5.134h0.434c10.977,0,17.949,3.7,21.865,6.8A22.294,22.294,0,0,1,50.224,48.4a0.933,0.933,0,0,0,.841.525,0.943,0.943,0,0,0,.2-0.022,0.922,0.922,0,0,0,.728-0.9V31.71A7.875,7.875,0,0,0,59,23.94Zm-57.137.523a8.555,8.555,0,0,1,7.686-8.449v16.9A8.555,8.555,0,0,1,1.863,24.463ZM20.121,39.939c0.013,4.213,1.9,7.8,5.609,10.669L20.982,54.9c-4.815-3.515-7.166-7.757-7.183-12.948,0-1.52,0-5.377,0-7.151H20.12C20.119,36.211,20.117,38.859,20.121,39.939Zm2.3-6.977H11.412v-17H22.418A41.682,41.682,0,0,0,36.443,13.7a32.623,32.623,0,0,0,5.665-2.647V37.872a32.615,32.615,0,0,0-5.665-2.647A41.679,41.679,0,0,0,22.418,32.962ZM50.134,44.877a27.194,27.194,0,0,0-4.6-4.647q-0.759-.606-1.562-1.164V9.86q0.8-.558,1.562-1.164a27.2,27.2,0,0,0,4.6-4.647V44.877ZM52,29.858V18.023A5.976,5.976,0,0,1,52,29.858Z"/>
</svg>
