<?xml version="1.0" encoding="utf-8"?>
<!-- Generator: Adobe Illustrator 21.1.0, SVG Export Plug-In . SVG Version: 6.00 Build 0)  -->
<svg version="1.1" id="Layer_1" xmlns="http://www.w3.org/2000/svg" xmlns:xlink="http://www.w3.org/1999/xlink" x="0px" y="0px"
	 viewBox="0 0 59 57" style="enable-background:new 0 0 59 57;" xml:space="preserve">
<path id="Forma_1" d="M59,23.9c0-4-3-7.3-7-7.8V0.9c0-0.4-0.3-0.8-0.7-0.9c-0.4-0.1-0.9,0.1-1,0.5c-1.5,2.7-3.5,5-5.9,6.8
	c-3.9,3.1-10.9,6.8-21.9,6.8H10.5C4.8,14,0.1,18.6,0,24.3s4.5,10.4,10.2,10.5c0.1,0,0.2,0,0.4,0h1.5c0,1.8,0,5.6,0,7.2
	c0,6,2.9,11,8.6,14.9c0.4,0.2,0.8,0.2,1.2-0.1l6.1-5.5c0.4-0.3,0.4-0.9,0.1-1.3c0-0.1-0.1-0.1-0.2-0.1c-3.9-2.7-5.7-5.9-5.7-9.8
	c0-1.1,0-3.7,0-5.1h0.4c11,0,17.9,3.7,21.9,6.8c2.4,1.8,4.4,4.2,5.9,6.8c0.2,0.3,0.5,0.5,0.8,0.5c0.1,0,0.1,0,0.2,0
	c0.4-0.1,0.7-0.5,0.7-0.9V31.7C56,31.3,59,27.9,59,23.9z M1.9,24.5c0-4.4,3.3-8,7.7-8.4v16.9C5.2,32.5,1.9,28.8,1.9,24.5z
	 M20.1,39.9c0,4.2,1.9,7.8,5.6,10.7L21,54.9c-4.8-3.5-7.2-7.8-7.2-12.9c0-1.5,0-5.4,0-7.2h6.3C20.1,36.2,20.1,38.9,20.1,39.9z
	 M22.4,33h-11V16h11c4.8,0.1,9.5-0.7,14-2.3c2-0.7,3.9-1.6,5.7-2.6v26.8c-1.8-1.1-3.7-1.9-5.7-2.6C31.9,33.7,27.2,32.9,22.4,33
	L22.4,33z M50.1,44.9c-1.3-1.7-2.9-3.3-4.6-4.6c-0.5-0.4-1-0.8-1.6-1.2V9.9c0.5-0.4,1.1-0.8,1.6-1.2c1.7-1.4,3.3-2.9,4.6-4.6V44.9z
	 M52,29.9V18c3.3,0.5,5.5,3.5,5.1,6.8C56.7,27.4,54.6,29.5,52,29.9z"/>
</svg>
