<?xml version="1.0" encoding="utf-8"?>
<!-- Generator: Adobe Illustrator 21.1.0, SVG Export Plug-In . SVG Version: 6.00 Build 0)  -->
<svg version="1.1" id="Layer_1" xmlns="http://www.w3.org/2000/svg" xmlns:xlink="http://www.w3.org/1999/xlink" x="0px" y="0px"
	 viewBox="0 0 62 62" style="enable-background:new 0 0 62 62;" xml:space="preserve">
<style type="text/css">
	.st0{fill:#020202;}
</style>
<path class="st0" d="M31,0C13.9,0,0,13.9,0,31s13.9,31,31,31s31-13.9,31-31C62,13.9,48.1,0,31,0z M31,58.8
	C15.7,58.8,3.2,46.3,3.2,31S15.7,3.2,31,3.2S58.8,15.7,58.8,31C58.8,46.3,46.3,58.8,31,58.8z M41,13.9c-0.8-0.5-1.8-0.2-2.2,0.5
	c-0.5,0.8-0.2,1.8,0.5,2.2c0,0,0,0,0.1,0c7.9,4.6,10.5,14.8,5.9,22.7s-14.8,10.5-22.7,5.9s-10.5-14.8-5.9-22.7
	c1.4-2.4,3.5-4.5,5.9-5.9c0.8-0.5,1-1.5,0.5-2.2c-0.5-0.7-1.4-1-2.2-0.6c-9.4,5.5-12.6,17.7-7,27.1s17.7,12.6,27.1,7
	s12.6-17.7,7-27.1C46.4,18.1,43.9,15.6,41,13.9z M31,9.1c-0.9,0-1.6,0.7-1.6,1.6l0,0V31c0,0.9,0.7,1.6,1.6,1.6
	c0.9,0,1.6-0.7,1.6-1.6c0,0,0,0,0,0V10.7C32.6,9.8,31.9,9.1,31,9.1z"/>
</svg>
