<svg xmlns="http://www.w3.org/2000/svg" width="62" height="62" viewBox="0 0 62 62">
  <metadata><?xpacket begin="﻿" id="W5M0MpCehiHzreSzNTczkc9d"?>
<x:xmpmeta xmlns:x="adobe:ns:meta/" x:xmptk="Adobe XMP Core 5.6-c138 79.159824, 2016/09/14-01:09:01        ">
   <rdf:RDF xmlns:rdf="http://www.w3.org/1999/02/22-rdf-syntax-ns#">
      <rdf:Description rdf:about=""/>
   </rdf:RDF>
</x:xmpmeta>
                                                                                                    
                                                                                                    
                                                                                                    
                                                                                                    
                                                                                                    
                                                                                                    
                                                                                                    
                                                                                                    
                                                                                                    
                                                                                                    
                                                                                                    
                                                                                                    
                                                                                                    
                                                                                                    
                                                                                                    
                                                                                                    
                                                                                                    
                                                                                                    
                                                                                                    
                                                                                                    
                           
<?xpacket end="w"?></metadata>
<defs>
    <style>
      .cls-1 {
        fill: #fff;
        fill-rule: evenodd;
      }
    </style>
  </defs>
  <path class="cls-1" d="M31,0A31,31,0,1,0,62,31,31.035,31.035,0,0,0,31,0Zm0,58.772A27.772,27.772,0,1,1,58.772,31,27.8,27.8,0,0,1,31,58.772ZM41.017,13.936a1.614,1.614,0,1,0-1.636,2.782,16.557,16.557,0,1,1-16.762,0,1.614,1.614,0,0,0-1.636-2.782A19.785,19.785,0,1,0,41.017,13.936ZM31,9.062a1.614,1.614,0,0,0-1.614,1.614V31a1.614,1.614,0,1,0,3.228,0V10.676A1.614,1.614,0,0,0,31,9.062Z"/>
</svg>
