<svg xmlns="http://www.w3.org/2000/svg" width="60" height="60" viewBox="0 0 60 60">
  <metadata><?xpacket begin="﻿" id="W5M0MpCehiHzreSzNTczkc9d"?>
<x:xmpmeta xmlns:x="adobe:ns:meta/" x:xmptk="Adobe XMP Core 5.6-c138 79.159824, 2016/09/14-01:09:01        ">
   <rdf:RDF xmlns:rdf="http://www.w3.org/1999/02/22-rdf-syntax-ns#">
      <rdf:Description rdf:about=""/>
   </rdf:RDF>
</x:xmpmeta>
                                                                                                    
                                                                                                    
                                                                                                    
                                                                                                    
                                                                                                    
                                                                                                    
                                                                                                    
                                                                                                    
                                                                                                    
                                                                                                    
                                                                                                    
                                                                                                    
                                                                                                    
                                                                                                    
                                                                                                    
                                                                                                    
                                                                                                    
                                                                                                    
                                                                                                    
                                                                                                    
                           
<?xpacket end="w"?></metadata>
<defs>
    <style>
      .cls-1 {
        fill: #fff;
        fill-rule: evenodd;
      }
    </style>
  </defs>
  <path class="cls-1" d="M34.108,28.454a1,1,0,0,0,1.346.437A85.725,85.725,0,0,1,44.3,24.954a1,1,0,0,0-.6-1.908,85.777,85.777,0,0,0-9.152,4.063A1,1,0,0,0,34.108,28.454ZM35,17a1,1,0,0,0,.453-0.109A85.725,85.725,0,0,1,44.3,12.954a1,1,0,0,0-.6-1.908,85.751,85.751,0,0,0-9.152,4.063A1,1,0,0,0,35,17Zm24-2a1,1,0,0,0-1,1V55a3,3,0,0,1-3,3H31V55.7A29.469,29.469,0,0,1,40,54a51.581,51.581,0,0,1,14.685,1.949A1,1,0,0,0,56,55V11a1,1,0,0,0-.783-0.976S54.433,9.849,53.093,9.6a1,1,0,0,0-.362,1.967c0.511,0.094.939,0.177,1.269,0.243V53.671A56.476,56.476,0,0,0,40,52a31.418,31.418,0,0,0-9.961,1.916A23.428,23.428,0,0,0,21,52,67.391,67.391,0,0,0,6,53.713V11.774A65.823,65.823,0,0,1,21,10a21.68,21.68,0,0,1,8,1.648V51a1,1,0,0,0,1.515.857c0.1-.059,10.007-5.977,18.8-8.908A1,1,0,0,0,50,42V1A1,1,0,0,0,48.648.064,106.368,106.368,0,0,0,32.47,8.152a1,1,0,1,0,1.06,1.7A106.871,106.871,0,0,1,48,2.463V41.284a112.068,112.068,0,0,0-17,7.979V11a1,1,0,0,0-.553-0.895A23.155,23.155,0,0,0,21,8,64.9,64.9,0,0,0,4.725,10.039,1,1,0,0,0,4,11V55a1,1,0,0,0,1,1,0.985,0.985,0,0,0,.274-0.039A64.237,64.237,0,0,1,21,54a21.634,21.634,0,0,1,8,1.649V58H5a3,3,0,0,1-3-3V16a1,1,0,1,0-2,0V55a5.006,5.006,0,0,0,5,5H55a5.006,5.006,0,0,0,5-5V16A1,1,0,0,0,59,15ZM34.108,22.454a1,1,0,0,0,1.346.437A85.725,85.725,0,0,1,44.3,18.954a1,1,0,0,0-.6-1.908,85.756,85.756,0,0,0-9.152,4.063A1,1,0,0,0,34.108,22.454Zm0,12a1,1,0,0,0,1.346.437A85.725,85.725,0,0,1,44.3,30.954a1,1,0,0,0-.6-1.908,85.751,85.751,0,0,0-9.152,4.063A1,1,0,0,0,34.108,34.454Zm-9.88-15.9c-6.175-1.449-13.192.4-13.487,0.476A1,1,0,0,0,11,21a1.016,1.016,0,0,0,.26-0.034c0.067-.019,6.823-1.8,12.513-0.461A1,1,0,1,0,24.228,18.558Zm0,6c-6.175-1.448-13.192.4-13.487,0.476A1,1,0,0,0,11,27a1.02,1.02,0,0,0,.26-0.034c0.067-.019,6.823-1.8,12.513-0.461A1,1,0,1,0,24.228,24.558Zm9.88,15.9a1,1,0,0,0,1.346.437A85.709,85.709,0,0,1,44.3,36.954a1,1,0,0,0-.6-1.908,85.777,85.777,0,0,0-9.152,4.063A1,1,0,0,0,34.108,40.454Zm-9.88-9.9c-6.175-1.448-13.192.4-13.487,0.476A1,1,0,0,0,11,33a1.013,1.013,0,0,0,.26-0.035c0.067-.019,6.823-1.8,12.513-0.461A1,1,0,1,0,24.228,30.558Zm0,12c-6.175-1.449-13.192.4-13.487,0.476A1,1,0,0,0,11,45a1.013,1.013,0,0,0,.26-0.035c0.067-.019,6.823-1.8,12.513-0.461A1,1,0,1,0,24.228,42.558Zm0-6c-6.175-1.449-13.192.4-13.487,0.476a1,1,0,1,0,.518,1.932c0.067-.019,6.823-1.8,12.513-0.461A1,1,0,1,0,24.228,36.558Z"/>
</svg>
