<?xml version="1.0" encoding="utf-8"?>
<!-- Generator: Adobe Illustrator 21.1.0, SVG Export Plug-In . SVG Version: 6.00 Build 0)  -->
<svg version="1.1" id="Layer_1" xmlns="http://www.w3.org/2000/svg" xmlns:xlink="http://www.w3.org/1999/xlink" x="0px" y="0px"
	 viewBox="0 0 60 60" style="enable-background:new 0 0 60 60;" xml:space="preserve">
<path d="M34.1,28.5c0.3,0.5,0.9,0.7,1.3,0.4c0,0,0,0,0,0c2.9-1.5,5.8-2.8,8.8-3.9c0.5-0.2,0.8-0.7,0.7-1.3c-0.2-0.5-0.7-0.8-1.3-0.7
	c-3.1,1.2-6.2,2.5-9.2,4.1C34.1,27.4,33.9,28,34.1,28.5C34.1,28.5,34.1,28.5,34.1,28.5z M35,17c0.2,0,0.3,0,0.5-0.1
	c2.9-1.5,5.8-2.8,8.8-3.9c0.5-0.2,0.8-0.7,0.7-1.3c-0.2-0.5-0.7-0.8-1.3-0.7l0,0c-3.1,1.2-6.2,2.5-9.2,4.1c-0.5,0.3-0.7,0.9-0.4,1.3
	C34.3,16.8,34.6,17,35,17z M59,15c-0.6,0-1,0.4-1,1v39c0,1.7-1.3,3-3,3l0,0H31v-2.3c2.9-1,5.9-1.6,9-1.7c5-0.1,9.9,0.6,14.7,1.9
	c0.5,0.2,1.1-0.1,1.3-0.6c0-0.1,0.1-0.2,0.1-0.3V11c0-0.5-0.3-0.9-0.8-1c0,0-0.8-0.2-2.1-0.4c-0.5-0.1-1.1,0.3-1.2,0.8
	c-0.1,0.5,0.3,1.1,0.8,1.2c0.5,0.1,0.9,0.2,1.3,0.2v41.9c-4.6-1.1-9.3-1.7-14-1.7c-3.4,0.1-6.8,0.7-10,1.9c-2.9-1.2-5.9-1.9-9-1.9
	c-5,0-10.1,0.6-15,1.7V11.8c4.9-1.2,9.9-1.8,15-1.8c2.7,0,5.5,0.6,8,1.6V51c0,0.6,0.4,1,1,1c0.2,0,0.4,0,0.5-0.1
	c0.1-0.1,10-6,18.8-8.9c0.4-0.1,0.7-0.5,0.7-0.9V1c0-0.6-0.4-1-1-1c-0.1,0-0.2,0-0.4,0.1C43,2.3,37.6,5,32.5,8.2
	c-0.5,0.3-0.6,0.9-0.3,1.4c0.3,0.5,0.9,0.6,1.4,0.3l0,0C38.2,7,43,4.6,48,2.5v38.8c-5.9,2.2-11.6,4.8-17,8V11c0-0.4-0.2-0.7-0.6-0.9
	C27.5,8.7,24.3,8,21,8c-5.5,0-11,0.7-16.3,2C4.3,10.2,4,10.6,4,11v44c0,0.6,0.4,1,1,1c0.1,0,0.2,0,0.3,0c5.1-1.3,10.4-2,15.7-2
	c2.7,0,5.5,0.6,8,1.6V58H5c-1.7,0-3-1.3-3-3l0,0V16c0-0.6-0.4-1-1-1s-1,0.4-1,1v39c0,2.8,2.2,5,5,5h50c2.8,0,5-2.2,5-5V16
	C60,15.4,59.6,15,59,15z M34.1,22.5c0.3,0.5,0.9,0.7,1.3,0.4c0,0,0,0,0,0c2.9-1.5,5.8-2.8,8.8-3.9c0.5-0.2,0.8-0.7,0.7-1.3
	c-0.2-0.5-0.7-0.8-1.3-0.7c-3.1,1.2-6.2,2.5-9.2,4.1C34.1,21.4,33.9,22,34.1,22.5C34.1,22.5,34.1,22.5,34.1,22.5z M34.1,34.5
	c0.3,0.5,0.9,0.7,1.3,0.4c0,0,0,0,0,0c2.9-1.5,5.8-2.8,8.8-3.9c0.5-0.2,0.8-0.7,0.7-1.3c-0.2-0.5-0.7-0.8-1.3-0.7l0,0
	c-3.1,1.2-6.2,2.5-9.2,4.1C34.1,33.4,33.9,34,34.1,34.5C34.1,34.5,34.1,34.5,34.1,34.5z M24.2,18.6C18.1,17.1,11,19,10.7,19
	c-0.5,0.1-0.9,0.7-0.7,1.2c0.1,0.5,0.5,0.8,1,0.8c0.1,0,0.2,0,0.3,0c0.1,0,6.8-1.8,12.5-0.5c0.5,0.1,1.1-0.2,1.2-0.7
	C25.1,19.3,24.8,18.7,24.2,18.6C24.3,18.6,24.2,18.6,24.2,18.6L24.2,18.6z M24.2,24.6C18.1,23.1,11,25,10.7,25
	c-0.5,0.1-0.9,0.7-0.7,1.2c0.1,0.5,0.5,0.8,1,0.8c0.1,0,0.2,0,0.3,0c0.1,0,6.8-1.8,12.5-0.5c0.5,0.1,1.1-0.2,1.2-0.7
	C25.1,25.3,24.8,24.7,24.2,24.6C24.3,24.6,24.2,24.6,24.2,24.6L24.2,24.6z M34.1,40.5c0.3,0.5,0.9,0.7,1.3,0.4c0,0,0,0,0,0
	c2.9-1.5,5.8-2.8,8.8-3.9c0.5-0.2,0.8-0.7,0.7-1.3c-0.2-0.5-0.7-0.8-1.3-0.7c-3.1,1.2-6.2,2.5-9.2,4.1C34.1,39.4,33.9,40,34.1,40.5
	C34.1,40.5,34.1,40.5,34.1,40.5z M24.2,30.6C18.1,29.1,11,31,10.7,31c-0.5,0.1-0.9,0.7-0.7,1.2c0.1,0.5,0.5,0.8,1,0.8
	c0.1,0,0.2,0,0.3,0c0.1,0,6.8-1.8,12.5-0.5c0.5,0.1,1.1-0.2,1.2-0.7C25.1,31.3,24.8,30.7,24.2,30.6C24.3,30.6,24.3,30.6,24.2,30.6
	L24.2,30.6z M24.2,42.6C18.1,41.1,11,43,10.7,43c-0.5,0.1-0.9,0.7-0.7,1.2c0.1,0.5,0.5,0.8,1,0.8c0.1,0,0.2,0,0.3,0
	c0.1,0,6.8-1.8,12.5-0.5c0.5,0.1,1.1-0.2,1.2-0.7S24.8,42.7,24.2,42.6C24.3,42.6,24.3,42.6,24.2,42.6L24.2,42.6z M24.2,36.6
	C18.1,35.1,11,37,10.7,37c-0.5,0.1-0.9,0.7-0.7,1.2c0.1,0.5,0.7,0.9,1.2,0.7c0.1,0,6.8-1.8,12.5-0.5c0.5,0.2,1.1-0.1,1.2-0.7
	c0.2-0.5-0.1-1.1-0.7-1.2C24.3,36.6,24.3,36.6,24.2,36.6L24.2,36.6z"/>
</svg>
