<?xml version="1.0" encoding="utf-8"?>
<!-- Generator: Adobe Illustrator 21.1.0, SVG Export Plug-In . SVG Version: 6.00 Build 0)  -->
<svg version="1.1" id="Layer_1" xmlns="http://www.w3.org/2000/svg" xmlns:xlink="http://www.w3.org/1999/xlink" x="0px" y="0px"
	 viewBox="0 0 62 61" style="enable-background:new 0 0 62 61;" xml:space="preserve">
<path id="Forma_1" d="M46,0v2h3.6L29,23L19,12.8L6.3,25.7l1.4,1.4L19,15.7l10,10.2L51,3.5v3.6h2V0H46z M60,59L60,59V14.2H50V59h-2
	V20.3H38V59h-2V34.6H26V59h-2V28.5H14V59h-2V44.7H2V59H0v2h62v-2H60z M10,59H4V46.8h6L10,59L10,59z M22,59h-6V30.5h6L22,59L22,59z
	 M34,59h-6V36.6h6L34,59L34,59z M46,59h-6V22.4h6V59z M58,59h-6V16.3h6L58,59L58,59z"/>
</svg>
